<mxfile host="Electron" agent="Mozilla/5.0 (X11; Linux x86_64) AppleWebKit/537.36 (KHTML, like Gecko) draw.io/26.0.3 Chrome/130.0.6723.137 Electron/33.2.1 Safari/537.36" version="26.0.3">
  <diagram name="Page-1" id="vPPKM-zbCPbBMnepHrfe">
    <mxGraphModel dx="1712" dy="1262" grid="1" gridSize="10" guides="1" tooltips="1" connect="1" arrows="1" fold="1" page="1" pageScale="1" pageWidth="850" pageHeight="1100" math="0" shadow="0">
      <root>
        <mxCell id="0" />
        <mxCell id="1" parent="0" />
        <mxCell id="a0XvktiSnbQnQ7Jx8TSW-2" value="create cmd" style="whiteSpace=wrap;html=1;" parent="1" vertex="1">
          <mxGeometry y="240" width="120" height="40" as="geometry" />
        </mxCell>
        <mxCell id="a0XvktiSnbQnQ7Jx8TSW-3" value="look number of cmd" style="whiteSpace=wrap;html=1;" parent="1" vertex="1">
          <mxGeometry x="280" y="240" width="120" height="40" as="geometry" />
        </mxCell>
        <mxCell id="a0XvktiSnbQnQ7Jx8TSW-10" value="pipe" style="whiteSpace=wrap;html=1;" parent="1" vertex="1">
          <mxGeometry x="440" y="160" width="80" height="40" as="geometry" />
        </mxCell>
        <mxCell id="a0XvktiSnbQnQ7Jx8TSW-12" value="builtin ?" style="whiteSpace=wrap;html=1;" parent="1" vertex="1">
          <mxGeometry x="520" y="240" width="120" height="40" as="geometry" />
        </mxCell>
        <mxCell id="a0XvktiSnbQnQ7Jx8TSW-17" value="" style="endArrow=classic;html=1;rounded=0;exitX=1;exitY=0.5;exitDx=0;exitDy=0;" parent="1" source="a0XvktiSnbQnQ7Jx8TSW-2" edge="1">
          <mxGeometry relative="1" as="geometry">
            <mxPoint x="200" y="240" as="sourcePoint" />
            <mxPoint x="220" y="260" as="targetPoint" />
          </mxGeometry>
        </mxCell>
        <mxCell id="a0XvktiSnbQnQ7Jx8TSW-18" value="old pipe ?" style="edgeLabel;resizable=0;html=1;;align=center;verticalAlign=middle;" parent="a0XvktiSnbQnQ7Jx8TSW-17" connectable="0" vertex="1">
          <mxGeometry relative="1" as="geometry" />
        </mxCell>
        <mxCell id="a0XvktiSnbQnQ7Jx8TSW-19" value="close prev-prev&lt;br&gt;(2 in the back)" style="whiteSpace=wrap;html=1;" parent="1" vertex="1">
          <mxGeometry x="160" y="160" width="120" height="40" as="geometry" />
        </mxCell>
        <mxCell id="a0XvktiSnbQnQ7Jx8TSW-22" value="" style="endArrow=classic;html=1;rounded=0;entryX=0.5;entryY=1;entryDx=0;entryDy=0;" parent="1" target="a0XvktiSnbQnQ7Jx8TSW-19" edge="1">
          <mxGeometry relative="1" as="geometry">
            <mxPoint x="220" y="260" as="sourcePoint" />
            <mxPoint x="450" y="240" as="targetPoint" />
          </mxGeometry>
        </mxCell>
        <mxCell id="a0XvktiSnbQnQ7Jx8TSW-23" value="yes" style="edgeLabel;resizable=0;html=1;;align=center;verticalAlign=middle;" parent="a0XvktiSnbQnQ7Jx8TSW-22" connectable="0" vertex="1">
          <mxGeometry relative="1" as="geometry" />
        </mxCell>
        <mxCell id="a0XvktiSnbQnQ7Jx8TSW-24" value="" style="endArrow=classic;html=1;rounded=0;" parent="1" edge="1">
          <mxGeometry relative="1" as="geometry">
            <mxPoint x="220" y="260" as="sourcePoint" />
            <mxPoint x="280" y="260" as="targetPoint" />
          </mxGeometry>
        </mxCell>
        <mxCell id="a0XvktiSnbQnQ7Jx8TSW-25" value="no" style="edgeLabel;resizable=0;html=1;;align=center;verticalAlign=middle;" parent="a0XvktiSnbQnQ7Jx8TSW-24" connectable="0" vertex="1">
          <mxGeometry relative="1" as="geometry">
            <mxPoint x="1" as="offset" />
          </mxGeometry>
        </mxCell>
        <mxCell id="a0XvktiSnbQnQ7Jx8TSW-26" value="" style="endArrow=classic;html=1;rounded=0;exitX=0.75;exitY=1;exitDx=0;exitDy=0;entryX=0;entryY=0;entryDx=0;entryDy=0;" parent="1" source="a0XvktiSnbQnQ7Jx8TSW-19" target="a0XvktiSnbQnQ7Jx8TSW-3" edge="1">
          <mxGeometry width="50" height="50" relative="1" as="geometry">
            <mxPoint x="350" y="280" as="sourcePoint" />
            <mxPoint x="400" y="230" as="targetPoint" />
          </mxGeometry>
        </mxCell>
        <mxCell id="a0XvktiSnbQnQ7Jx8TSW-27" value="" style="endArrow=classic;html=1;rounded=0;exitX=1;exitY=0.5;exitDx=0;exitDy=0;" parent="1" source="a0XvktiSnbQnQ7Jx8TSW-3" edge="1">
          <mxGeometry relative="1" as="geometry">
            <mxPoint x="420" y="259.71" as="sourcePoint" />
            <mxPoint x="480" y="260" as="targetPoint" />
          </mxGeometry>
        </mxCell>
        <mxCell id="a0XvktiSnbQnQ7Jx8TSW-28" value="cmds &amp;gt; 1" style="edgeLabel;resizable=0;html=1;;align=center;verticalAlign=middle;" parent="a0XvktiSnbQnQ7Jx8TSW-27" connectable="0" vertex="1">
          <mxGeometry relative="1" as="geometry" />
        </mxCell>
        <mxCell id="a0XvktiSnbQnQ7Jx8TSW-31" value="" style="endArrow=classic;html=1;rounded=0;" parent="1" edge="1">
          <mxGeometry relative="1" as="geometry">
            <mxPoint x="480" y="260" as="sourcePoint" />
            <mxPoint x="480" y="200" as="targetPoint" />
          </mxGeometry>
        </mxCell>
        <mxCell id="a0XvktiSnbQnQ7Jx8TSW-32" value="yes" style="edgeLabel;resizable=0;html=1;;align=center;verticalAlign=middle;" parent="a0XvktiSnbQnQ7Jx8TSW-31" connectable="0" vertex="1">
          <mxGeometry relative="1" as="geometry" />
        </mxCell>
        <mxCell id="a0XvktiSnbQnQ7Jx8TSW-38" value="" style="endArrow=classic;html=1;rounded=0;entryX=0;entryY=0.5;entryDx=0;entryDy=0;" parent="1" target="a0XvktiSnbQnQ7Jx8TSW-12" edge="1">
          <mxGeometry relative="1" as="geometry">
            <mxPoint x="480" y="260" as="sourcePoint" />
            <mxPoint x="530" y="280" as="targetPoint" />
          </mxGeometry>
        </mxCell>
        <mxCell id="a0XvktiSnbQnQ7Jx8TSW-39" value="no" style="edgeLabel;resizable=0;html=1;;align=center;verticalAlign=middle;" parent="a0XvktiSnbQnQ7Jx8TSW-38" connectable="0" vertex="1">
          <mxGeometry relative="1" as="geometry" />
        </mxCell>
        <mxCell id="a0XvktiSnbQnQ7Jx8TSW-41" value="" style="endArrow=classic;html=1;rounded=0;exitX=0.75;exitY=1;exitDx=0;exitDy=0;entryX=0.25;entryY=0;entryDx=0;entryDy=0;" parent="1" source="a0XvktiSnbQnQ7Jx8TSW-10" target="a0XvktiSnbQnQ7Jx8TSW-12" edge="1">
          <mxGeometry width="50" height="50" relative="1" as="geometry">
            <mxPoint x="470" y="290" as="sourcePoint" />
            <mxPoint x="520" y="240" as="targetPoint" />
          </mxGeometry>
        </mxCell>
        <mxCell id="a0XvktiSnbQnQ7Jx8TSW-42" value="fork" style="whiteSpace=wrap;html=1;" parent="1" vertex="1">
          <mxGeometry x="560" y="320" width="40" height="40" as="geometry" />
        </mxCell>
        <mxCell id="a0XvktiSnbQnQ7Jx8TSW-43" value="" style="endArrow=classic;html=1;rounded=0;entryX=0.5;entryY=0;entryDx=0;entryDy=0;exitX=0.5;exitY=1;exitDx=0;exitDy=0;" parent="1" source="a0XvktiSnbQnQ7Jx8TSW-12" target="a0XvktiSnbQnQ7Jx8TSW-42" edge="1">
          <mxGeometry relative="1" as="geometry">
            <mxPoint x="600" y="300" as="sourcePoint" />
            <mxPoint x="640" y="300" as="targetPoint" />
          </mxGeometry>
        </mxCell>
        <mxCell id="a0XvktiSnbQnQ7Jx8TSW-44" value="no" style="edgeLabel;resizable=0;html=1;;align=center;verticalAlign=middle;" parent="a0XvktiSnbQnQ7Jx8TSW-43" connectable="0" vertex="1">
          <mxGeometry relative="1" as="geometry" />
        </mxCell>
        <mxCell id="a0XvktiSnbQnQ7Jx8TSW-46" value="" style="endArrow=classic;html=1;rounded=0;entryX=1;entryY=0.25;entryDx=0;entryDy=0;exitX=1;exitY=1;exitDx=0;exitDy=0;" parent="1" source="a0XvktiSnbQnQ7Jx8TSW-12" target="a0XvktiSnbQnQ7Jx8TSW-42" edge="1">
          <mxGeometry relative="1" as="geometry">
            <mxPoint x="640" y="290" as="sourcePoint" />
            <mxPoint x="640" y="330" as="targetPoint" />
          </mxGeometry>
        </mxCell>
        <mxCell id="a0XvktiSnbQnQ7Jx8TSW-47" value="cmds &amp;gt; 1" style="edgeLabel;resizable=0;html=1;;align=center;verticalAlign=middle;" parent="a0XvktiSnbQnQ7Jx8TSW-46" connectable="0" vertex="1">
          <mxGeometry relative="1" as="geometry" />
        </mxCell>
        <mxCell id="a0XvktiSnbQnQ7Jx8TSW-49" value="" style="endArrow=classic;html=1;rounded=0;exitX=1;exitY=0.5;exitDx=0;exitDy=0;entryX=0;entryY=0.5;entryDx=0;entryDy=0;" parent="1" source="a0XvktiSnbQnQ7Jx8TSW-12" target="a0XvktiSnbQnQ7Jx8TSW-51" edge="1">
          <mxGeometry relative="1" as="geometry">
            <mxPoint x="710" y="280" as="sourcePoint" />
            <mxPoint x="680" y="260" as="targetPoint" />
          </mxGeometry>
        </mxCell>
        <mxCell id="a0XvktiSnbQnQ7Jx8TSW-50" value="yes" style="edgeLabel;resizable=0;html=1;;align=center;verticalAlign=middle;" parent="a0XvktiSnbQnQ7Jx8TSW-49" connectable="0" vertex="1">
          <mxGeometry relative="1" as="geometry" />
        </mxCell>
        <mxCell id="a0XvktiSnbQnQ7Jx8TSW-51" value="run builtin" style="whiteSpace=wrap;html=1;" parent="1" vertex="1">
          <mxGeometry x="680" y="240" width="120" height="40" as="geometry" />
        </mxCell>
        <mxCell id="a0XvktiSnbQnQ7Jx8TSW-52" value="" style="endArrow=classic;html=1;rounded=0;exitX=0;exitY=0.5;exitDx=0;exitDy=0;entryX=1;entryY=0.5;entryDx=0;entryDy=0;" parent="1" source="a0XvktiSnbQnQ7Jx8TSW-42" target="a0XvktiSnbQnQ7Jx8TSW-68" edge="1">
          <mxGeometry relative="1" as="geometry">
            <mxPoint x="520" y="320" as="sourcePoint" />
            <mxPoint x="470" y="330" as="targetPoint" />
          </mxGeometry>
        </mxCell>
        <mxCell id="a0XvktiSnbQnQ7Jx8TSW-53" value="main prosses" style="edgeLabel;resizable=0;html=1;;align=center;verticalAlign=middle;" parent="a0XvktiSnbQnQ7Jx8TSW-52" connectable="0" vertex="1">
          <mxGeometry relative="1" as="geometry" />
        </mxCell>
        <mxCell id="a0XvktiSnbQnQ7Jx8TSW-54" value="" style="endArrow=classic;html=1;rounded=0;exitX=0.5;exitY=1;exitDx=0;exitDy=0;entryX=0.5;entryY=0;entryDx=0;entryDy=0;" parent="1" source="a0XvktiSnbQnQ7Jx8TSW-42" target="a0XvktiSnbQnQ7Jx8TSW-56" edge="1">
          <mxGeometry relative="1" as="geometry">
            <mxPoint x="570" y="400" as="sourcePoint" />
            <mxPoint x="580" y="400" as="targetPoint" />
          </mxGeometry>
        </mxCell>
        <mxCell id="a0XvktiSnbQnQ7Jx8TSW-55" value="child prosses" style="edgeLabel;resizable=0;html=1;;align=center;verticalAlign=middle;" parent="a0XvktiSnbQnQ7Jx8TSW-54" connectable="0" vertex="1">
          <mxGeometry relative="1" as="geometry" />
        </mxCell>
        <mxCell id="a0XvktiSnbQnQ7Jx8TSW-56" value="pipe or redir?" style="whiteSpace=wrap;html=1;" parent="1" vertex="1">
          <mxGeometry x="520" y="400" width="120" height="40" as="geometry" />
        </mxCell>
        <mxCell id="a0XvktiSnbQnQ7Jx8TSW-57" value="" style="endArrow=classic;html=1;rounded=0;exitX=0.5;exitY=1;exitDx=0;exitDy=0;entryX=0.5;entryY=0;entryDx=0;entryDy=0;" parent="1" source="a0XvktiSnbQnQ7Jx8TSW-56" target="a0XvktiSnbQnQ7Jx8TSW-59" edge="1">
          <mxGeometry relative="1" as="geometry">
            <mxPoint x="500" y="520" as="sourcePoint" />
            <mxPoint x="590" y="470" as="targetPoint" />
          </mxGeometry>
        </mxCell>
        <mxCell id="a0XvktiSnbQnQ7Jx8TSW-58" value="yes" style="edgeLabel;resizable=0;html=1;;align=center;verticalAlign=middle;" parent="a0XvktiSnbQnQ7Jx8TSW-57" connectable="0" vertex="1">
          <mxGeometry relative="1" as="geometry" />
        </mxCell>
        <mxCell id="a0XvktiSnbQnQ7Jx8TSW-64" style="edgeStyle=orthogonalEdgeStyle;rounded=0;orthogonalLoop=1;jettySize=auto;html=1;entryX=0.5;entryY=1;entryDx=0;entryDy=0;exitX=0.5;exitY=0;exitDx=0;exitDy=0;" parent="1" source="a0XvktiSnbQnQ7Jx8TSW-72" target="a0XvktiSnbQnQ7Jx8TSW-60" edge="1">
          <mxGeometry relative="1" as="geometry">
            <mxPoint x="480" y="500" as="sourcePoint" />
          </mxGeometry>
        </mxCell>
        <mxCell id="a0XvktiSnbQnQ7Jx8TSW-73" style="edgeStyle=orthogonalEdgeStyle;rounded=0;orthogonalLoop=1;jettySize=auto;html=1;entryX=1;entryY=0.5;entryDx=0;entryDy=0;" parent="1" source="a0XvktiSnbQnQ7Jx8TSW-59" target="a0XvktiSnbQnQ7Jx8TSW-72" edge="1">
          <mxGeometry relative="1" as="geometry" />
        </mxCell>
        <mxCell id="a0XvktiSnbQnQ7Jx8TSW-59" value="dup2" style="whiteSpace=wrap;html=1;" parent="1" vertex="1">
          <mxGeometry x="560" y="480" width="40" height="40" as="geometry" />
        </mxCell>
        <mxCell id="a0XvktiSnbQnQ7Jx8TSW-60" value="run&amp;nbsp;execve" style="whiteSpace=wrap;html=1;" parent="1" vertex="1">
          <mxGeometry x="400" y="400" width="80" height="40" as="geometry" />
        </mxCell>
        <mxCell id="a0XvktiSnbQnQ7Jx8TSW-62" value="" style="endArrow=classic;html=1;rounded=0;entryX=1;entryY=0.5;entryDx=0;entryDy=0;exitX=0;exitY=0.5;exitDx=0;exitDy=0;" parent="1" source="a0XvktiSnbQnQ7Jx8TSW-56" target="a0XvktiSnbQnQ7Jx8TSW-60" edge="1">
          <mxGeometry relative="1" as="geometry">
            <mxPoint x="590" y="290" as="sourcePoint" />
            <mxPoint x="590" y="330" as="targetPoint" />
          </mxGeometry>
        </mxCell>
        <mxCell id="a0XvktiSnbQnQ7Jx8TSW-63" value="no" style="edgeLabel;resizable=0;html=1;;align=center;verticalAlign=middle;" parent="a0XvktiSnbQnQ7Jx8TSW-62" connectable="0" vertex="1">
          <mxGeometry relative="1" as="geometry" />
        </mxCell>
        <mxCell id="a0XvktiSnbQnQ7Jx8TSW-70" style="edgeStyle=orthogonalEdgeStyle;rounded=0;orthogonalLoop=1;jettySize=auto;html=1;entryX=1;entryY=0.5;entryDx=0;entryDy=0;" parent="1" source="a0XvktiSnbQnQ7Jx8TSW-66" target="a0XvktiSnbQnQ7Jx8TSW-67" edge="1">
          <mxGeometry relative="1" as="geometry" />
        </mxCell>
        <mxCell id="a0XvktiSnbQnQ7Jx8TSW-66" value="waitpid" style="whiteSpace=wrap;html=1;" parent="1" vertex="1">
          <mxGeometry x="160" y="320" width="120" height="40" as="geometry" />
        </mxCell>
        <mxCell id="a0XvktiSnbQnQ7Jx8TSW-71" style="edgeStyle=orthogonalEdgeStyle;rounded=0;orthogonalLoop=1;jettySize=auto;html=1;entryX=0.5;entryY=1;entryDx=0;entryDy=0;" parent="1" source="a0XvktiSnbQnQ7Jx8TSW-67" target="a0XvktiSnbQnQ7Jx8TSW-2" edge="1">
          <mxGeometry relative="1" as="geometry" />
        </mxCell>
        <mxCell id="a0XvktiSnbQnQ7Jx8TSW-67" value="readline" style="whiteSpace=wrap;html=1;" parent="1" vertex="1">
          <mxGeometry y="320" width="120" height="40" as="geometry" />
        </mxCell>
        <mxCell id="a0XvktiSnbQnQ7Jx8TSW-69" style="edgeStyle=orthogonalEdgeStyle;rounded=0;orthogonalLoop=1;jettySize=auto;html=1;entryX=1;entryY=0.5;entryDx=0;entryDy=0;" parent="1" source="a0XvktiSnbQnQ7Jx8TSW-68" target="a0XvktiSnbQnQ7Jx8TSW-66" edge="1">
          <mxGeometry relative="1" as="geometry" />
        </mxCell>
        <mxCell id="a0XvktiSnbQnQ7Jx8TSW-68" value="close pipe" style="whiteSpace=wrap;html=1;" parent="1" vertex="1">
          <mxGeometry x="360" y="320" width="80" height="40" as="geometry" />
        </mxCell>
        <mxCell id="a0XvktiSnbQnQ7Jx8TSW-72" value="close pipe or fd" style="whiteSpace=wrap;html=1;" parent="1" vertex="1">
          <mxGeometry x="400" y="480" width="80" height="40" as="geometry" />
        </mxCell>
      </root>
    </mxGraphModel>
  </diagram>
</mxfile>
